<svg width="43" height="31" viewBox="0 0 43 31" fill="none" xmlns="http://www.w3.org/2000/svg">
<path d="M35.8333 0H7.16667C2.74125 0 0 2.635 0 6.88889V24.1111C0 28.365 2.74125 31 7.16667 31H35.8333C40.2588 31 43 28.365 43 24.1111V6.88889C43 2.635 40.2588 0 35.8333 0ZM5.375 8.61111H14.3333V13.7778H5.375V8.61111ZM10.75 22.3889H5.375V18.9444H10.75V22.3889ZM19.7083 22.3889H14.3333V18.9444H19.7083V22.3889ZM28.6667 22.3889H23.2917V18.9444H28.6667V22.3889ZM37.625 22.3889H32.25V18.9444H37.625V22.3889Z" fill="#D3D3D3"/>
</svg>
